PathFileType	4	(X/Y/Z)	G:\Shared drives\HPL_Drive\Nord Sprinting Study\Kristen_Nord_test\Trimmed_Nord000007.trc
DataRate	CameraRate	NumFrames	NumMarkers	Units	OrigDataRate	OrigDataStartFrame	OrigNumFrames
200.00	200.00	      4	52	mm	200.00	1	      1933
Frame#	Time	C7			R_Shoulder			L_Shoulder			Sternum			R_humerus			R_elbow_med			R_elbow_lat			R_forearm			R_wrist_radius			R_wrist_ulna			L_humerus			L_elbow_med			L_elbow_lat			L_forearm			L_wrist_radius			L_wrist_ulna			r.ASIS			r.PSIS			r_IC			L.ASIS			L.PSIS			l_IC			r_thigh1			r_thigh2			r_thigh3			r_thigh4			r_thigh5			r_knee			r_mknee			r_shank_antsup			r_sh2			r_sh3			r_sh4			r_ankle			r_mankle			r_calc			r_5meta			r_toe			L_thigh1			L_thigh2			L_thigh3			L_thigh4			L_knee			L_mknee			L_shank_antsup			L_sh2			L_sh3			L_ankle			L_mankle			L_calc			L_5meta			L_toe			
		X1	Y1	Z1	X2	Y2	Z2	X3	Y3	Z3	X4	Y4	Z4	X5	Y5	Z5	X6	Y6	Z6	X7	Y7	Z7	X8	Y8	Z8	X9	Y9	Z9	X10	Y10	Z10	X11	Y11	Z11	X12	Y12	Z12	X13	Y13	Z13	X14	Y14	Z14	X15	Y15	Z15	X16	Y16	Z16	X17	Y17	Z17	X18	Y18	Z18	X19	Y19	Z19	X20	Y20	Z20	X21	Y21	Z21	X22	Y22	Z22	X23	Y23	Z23	X24	Y24	Z24	X25	Y25	Z25	X26	Y26	Z26	X27	Y27	Z27	X28	Y28	Z28	X29	Y29	Z29	X30	Y30	Z30	X31	Y31	Z31	X32	Y32	Z32	X33	Y33	Z33	X34	Y34	Z34	X35	Y35	Z35	X36	Y36	Z36	X37	Y37	Z37	X38	Y38	Z38	X39	Y39	Z39	X40	Y40	Z40	X41	Y41	Z41	X42	Y42	Z42	X43	Y43	Z43	X44	Y44	Z44	X45	Y45	Z45	X46	Y46	Z46	X47	Y47	Z47	X48	Y48	Z48	X49	Y49	Z49	X50	Y50	Z50	X51	Y51	Z51	X52	Y52	Z52	

1	0.000	1232.47778	266.50748	1285.78149	1349.31909	326.46219	1294.39001	1084.85889	293.46945	1298.85706	1209.49463	397.03586	1251.94141	1523.33484	316.58566	1230.73877	1632.65637	367.70947	1129.42859	1641.12390	295.40976	1164.99048	1604.10156	334.31271	1278.98743	1540.61548	398.68613	1359.86353	1582.08887	380.69513	1376.64404	893.98114	241.10889	1229.03406	790.64886	284.81229	1137.92871	789.62439	212.88020	1167.31592	838.25641	262.24582	1297.03943	892.78961	312.90411	1365.36975	843.63452	311.26950	1380.37183	1333.59216	437.27090	791.20758	1293.32666	254.71700	850.44244	1374.06262	362.08612	872.19849	1093.50427	419.48181	790.49243	1176.42554	248.90608	844.83282	1069.22937	348.13028	861.70874	1385.22449	398.82910	525.52722	1377.92407	395.30374	410.49951	1389.56238	346.26630	383.63794	1393.67468	291.56931	532.00439	1374.57520	287.65555	414.82150	1369.93481	352.54855	304.12747	1242.96497	337.20840	315.63232	1391.73669	217.43369	282.20197	1371.80652	99.91280	279.19574	1391.88184	213.33733	357.03729	1373.10864	99.62328	360.77893	1356.20300	-64.30350	316.01120	1278.39917	-49.49142	284.46066	1300.91235	-91.43715	372.44891	1375.54272	-141.27925	219.55852	1336.59912	-121.74077	168.58865	1032.38501	396.69711	533.64246	1033.88574	397.87354	393.57022	1035.32642	276.28922	540.41980	1043.35596	285.86871	404.79688	1023.07263	331.07834	328.67972	1152.55872	341.12952	306.08087	1008.54669	224.58812	297.72662	1026.10547	222.21019	386.33362	1038.77722	103.47643	372.04401	1042.30627	-72.75963	321.37558	1116.27832	-43.49527	281.96362	1098.64722	-80.70584	369.22491	1036.62500	-154.17383	210.36867	1075.26880	-125.06115	155.03596	
2	0.005	1232.44507	266.52716	1285.80945	1349.30225	326.49060	1294.40820	1084.85461	293.50348	1298.87183	1209.37573	397.07416	1252.02600	1523.31165	316.59659	1230.72668	1632.78259	367.78445	1129.32227	1641.12488	295.40521	1164.95801	1604.07495	334.30099	1279.02258	1540.59595	398.70786	1359.85828	1582.08655	380.69962	1376.61462	893.96222	241.14172	1229.03918	790.63251	284.84464	1137.89600	789.62152	212.92210	1167.24866	838.15973	262.25665	1297.10132	892.78955	312.95697	1365.33264	843.63873	311.28021	1380.32178	1333.54639	437.30167	791.29303	1293.31311	254.72879	850.49170	1374.06665	362.11035	872.21692	1093.49170	419.50293	790.53253	1176.40369	248.91345	844.83405	1069.21948	348.14560	861.69684	1385.21118	398.83115	525.54510	1377.90479	395.28842	410.48532	1389.53125	346.25165	383.65143	1393.66724	291.57266	532.02222	1374.56677	287.63919	414.85074	1369.94458	352.54825	304.14331	1242.95093	337.20139	315.60434	1391.71326	217.44157	282.22485	1371.80383	99.91872	279.20932	1391.81824	213.35683	357.04956	1373.12634	99.63905	360.79767	1356.17822	-64.33395	315.98947	1278.36646	-49.42139	284.48138	1300.91370	-91.45931	372.47983	1375.53528	-141.29375	219.57135	1336.43518	-121.61213	168.34012	1032.39551	396.71320	533.61066	1033.91577	397.89413	393.57425	1035.33032	276.31641	540.38568	1043.35791	285.84235	404.78104	1023.06091	331.06949	328.70416	1152.55103	341.06241	306.08911	1008.51245	224.62657	297.65680	1026.12585	222.23546	386.33902	1038.76611	103.47283	372.02295	1042.29199	-72.76952	321.35330	1116.26782	-43.49059	281.97781	1098.56274	-80.70406	369.29337	1036.16821	-154.25533	209.85991	1075.24207	-125.03538	154.98854	
3	0.010	1232.42603	266.57315	1285.81787	1349.29333	326.52789	1294.44653	1084.83655	293.54355	1298.86145	1209.41821	397.14133	1251.98096	1523.29810	316.60754	1230.72021	1632.78259	367.78412	1129.28015	1641.09558	295.40570	1164.96411	1604.04272	334.31082	1279.02002	1540.58142	398.71057	1359.85071	1582.06750	380.69232	1376.62939	893.96600	241.21339	1229.02808	790.60358	284.89017	1137.88184	789.60919	212.96413	1167.24768	838.15521	262.30350	1297.04492	892.74933	313.01761	1365.35620	843.59991	311.35272	1380.32605	1333.51221	437.28540	791.26465	1293.28198	254.74440	850.54187	1374.04968	362.10809	872.20313	1093.49915	419.52515	790.49481	1176.43713	248.96165	844.78595	1069.22229	348.16275	861.69666	1385.21667	398.84100	525.56012	1377.94666	395.25571	410.48004	1389.51428	346.24695	383.66406	1393.67603	291.58685	532.04559	1374.53784	287.63281	414.85803	1369.93311	352.55081	304.17352	1242.96008	337.20544	315.62524	1391.72192	217.42307	282.22678	1371.80188	99.92838	279.22128	1391.82861	213.35355	357.06494	1373.12598	99.64355	360.80444	1356.18213	-64.32285	316.01682	1278.37866	-49.44522	284.40848	1300.92041	-91.47030	372.44577	1375.56982	-141.27963	219.57642	1336.59888	-121.74461	168.58568	1032.37610	396.64725	533.65460	1033.89307	397.91068	393.60663	1035.33862	276.25668	540.41699	1043.32776	285.84122	404.78357	1023.06458	331.07074	328.68420	1152.53406	341.09521	306.10449	1008.52466	224.69626	297.64886	1026.14990	222.24818	386.32425	1038.77258	103.49902	372.08179	1042.30432	-72.74657	321.35266	1116.26965	-43.51080	281.98352	1098.61389	-80.69799	369.20737	1036.16577	-154.26050	209.85643	1075.28235	-125.04596	154.94711	
4	0.015	1232.43323	266.62164	1285.81824	1349.26465	326.52521	1294.45764	1084.80603	293.58511	1298.86890	1209.39307	397.18295	1251.98804	1523.28162	316.61847	1230.72595	1632.75903	367.78851	1129.24512	1641.06860	295.39890	1164.95300	1604.03503	334.30310	1279.00061	1540.58826	398.71399	1359.82751	1582.04614	380.73218	1376.68201	893.95172	241.26501	1229.03833	790.61340	284.93408	1137.85303	789.57599	213.01140	1167.23914	838.17267	262.33609	1296.97156	892.68365	313.04526	1365.42566	843.54926	311.40518	1380.30725	1333.58887	437.31805	791.22809	1293.32312	254.75978	850.53595	1374.06152	362.14090	872.22833	1093.51843	419.55954	790.48389	1176.42981	248.96805	844.79706	1069.21582	348.16479	861.70636	1385.19495	398.79456	525.51208	1377.94263	395.25751	410.47705	1389.51367	346.24500	383.65671	1393.68091	291.58618	532.02087	1374.55139	287.64691	414.86322	1369.92175	352.54471	304.21500	1242.96497	337.22916	315.62448	1391.72717	217.43109	282.23282	1371.77893	99.92416	279.20901	1391.84814	213.33673	357.05502	1373.09363	99.65691	360.77728	1356.17749	-64.30256	316.00299	1278.35364	-49.42847	284.41650	1300.93677	-91.47967	372.42572	1375.55505	-141.28958	219.58777	1336.39246	-121.61087	168.37675	1032.34827	396.63342	533.59418	1033.91443	397.88849	393.61758	1035.35425	276.30264	540.39624	1043.32983	285.85175	404.76837	1023.04877	331.06253	328.69016	1152.52698	341.10147	306.09494	1008.54144	224.68684	297.68628	1026.17847	222.73599	386.28513	1038.77747	103.49102	372.09399	1042.32568	-72.72771	321.33051	1116.27832	-43.49679	282.00250	1098.64307	-80.68813	369.19659	1036.15552	-154.25620	209.82878	1075.30676	-125.05350	154.93454	
